HIERARCHY
ROOT Root
{
	OFFSET 0.0000 0.0000 0.0000
	CHANNELS 6 Xposition Yposition Zposition Zrotation Xrotation Yrotation
	JOINT Spine01
	{
		OFFSET 0.0000 -16.7008 118.8322
		CHANNELS 6 Xposition Yposition Zposition Zrotation Xrotation Yrotation
		JOINT Spine02
		{
			OFFSET 0.0000 11.8586 169.5859
			CHANNELS 6 Xposition Yposition Zposition Zrotation Xrotation Yrotation
			JOINT LeftShoulder
			{
				OFFSET 83.0000 21.5583 44.2746
				CHANNELS 6 Xposition Yposition Zposition Zrotation Xrotation Yrotation
				JOINT LeftArm
				{
					OFFSET 0.0000 -111.4369 141.3570
					CHANNELS 6 Xposition Yposition Zposition Zrotation Xrotation Yrotation
					JOINT LeftForeArm
					{
						OFFSET 0.0000 -172.4081 -79.8464
						CHANNELS 6 Xposition Yposition Zposition Zrotation Xrotation Yrotation
						JOINT LeftWrist
						{
							OFFSET 0.0000 -209.8784 7.1457
							CHANNELS 6 Xposition Yposition Zposition Zrotation Xrotation Yrotation
							JOINT LeftHand
							{
								OFFSET 0.0000 -64.9257 26.1658
								CHANNELS 6 Xposition Yposition Zposition Zrotation Xrotation Yrotation
								End Site
								{
									OFFSET 0.0000 -20.5704 56.3636
								}
							}
						}
					}
				}
			}
			JOINT RightShoulder
			{
				OFFSET -83.0000 21.5583 44.2746
				CHANNELS 6 Xposition Yposition Zposition Zrotation Xrotation Yrotation
				JOINT RightArm
				{
					OFFSET 0.0000 -111.4369 141.3570
					CHANNELS 6 Xposition Yposition Zposition Zrotation Xrotation Yrotation
					JOINT RightForeArm
					{
						OFFSET 0.0000 -172.4081 -79.8464
						CHANNELS 6 Xposition Yposition Zposition Zrotation Xrotation Yrotation
						JOINT RightWrist
						{
							OFFSET 0.0000 -209.8784 7.1457
							CHANNELS 6 Xposition Yposition Zposition Zrotation Xrotation Yrotation
							JOINT RightHand
							{
								OFFSET 0.0000 -64.9257 26.1658
								CHANNELS 6 Xposition Yposition Zposition Zrotation Xrotation Yrotation
								End Site
								{
									OFFSET 0.0000 -20.5704 56.3636
								}
							}
						}
					}
				}
			}
			JOINT Neck01
			{
				OFFSET 0.0000 4.1879 119.9269
				CHANNELS 6 Xposition Yposition Zposition Zrotation Xrotation Yrotation
				JOINT Neck02
				{
					OFFSET 0.0000 -14.3102 88.8550
					CHANNELS 6 Xposition Yposition Zposition Zrotation Xrotation Yrotation
					JOINT Neck03
					{
						OFFSET 0.0000 72.0997 53.8668
						CHANNELS 6 Xposition Yposition Zposition Zrotation Xrotation Yrotation
						JOINT Neck04
						{
							OFFSET 0.0000 88.9597 -13.6445
							CHANNELS 6 Xposition Yposition Zposition Zrotation Xrotation Yrotation
							JOINT Head
							{
								OFFSET 0.0000 19.3735 72.4546
								CHANNELS 6 Xposition Yposition Zposition Zrotation Xrotation Yrotation
								End Site
								{
									OFFSET 0.0000 -28.2512 167.6361
								}
								JOINT LeftEar
								{
									OFFSET 45.0000 62.4894 -9.7509
									CHANNELS 6 Xposition Yposition Zposition Zrotation Xrotation Yrotation
									End Site
									{
										OFFSET 23.1256 59.6428 28.4242
									}
								}
								JOINT RightEar
								{
									OFFSET -45.0000 62.4894 -9.7509
									CHANNELS 6 Xposition Yposition Zposition Zrotation Xrotation Yrotation
									End Site
									{
										OFFSET -23.1256 59.6428 28.4242
									}
								}
							}
						}
					}
				}
			}
		}
	}
	JOINT LeftLeg
	{
		OFFSET 75.0000 -65.3041 -110.1607
		CHANNELS 6 Xposition Yposition Zposition Zrotation Xrotation Yrotation
		JOINT LeftLowerLeg
		{
			OFFSET 0.0000 -209.4885 14.6489
			CHANNELS 6 Xposition Yposition Zposition Zrotation Xrotation Yrotation
			JOINT LeftAnkle
			{
				OFFSET 0.0000 -168.5298 -141.4133
				CHANNELS 6 Xposition Yposition Zposition Zrotation Xrotation Yrotation
				JOINT LeftFoot
				{
					OFFSET 0.0000 -96.5926 25.8819
					CHANNELS 6 Xposition Yposition Zposition Zrotation Xrotation Yrotation
					End Site
					{
						OFFSET 0.0000 -19.5341 56.7311
					}
				}
			}
		}
	}
	JOINT RightLeg
	{
		OFFSET -75.0000 -65.3041 -110.1607
		CHANNELS 6 Xposition Yposition Zposition Zrotation Xrotation Yrotation
		JOINT RightLowerLeg
		{
			OFFSET 0.0000 -209.4885 14.6489
			CHANNELS 6 Xposition Yposition Zposition Zrotation Xrotation Yrotation
			JOINT RightAnkle
			{
				OFFSET 0.0000 -168.5298 -141.4133
				CHANNELS 6 Xposition Yposition Zposition Zrotation Xrotation Yrotation
				JOINT RightFoot
				{
					OFFSET 0.0000 -96.5926 25.8819
					CHANNELS 6 Xposition Yposition Zposition Zrotation Xrotation Yrotation
					End Site
					{
						OFFSET 0.0000 -19.5341 56.7311
					}
				}
			}
		}
	}
	JOINT TailBase
	{
		OFFSET 0.0000 -22.9100 -124.3991
		CHANNELS 6 Xposition Yposition Zposition Zrotation Xrotation Yrotation
		JOINT Tail1
		{
			OFFSET 0.0000 0.0000 -67.0000
			CHANNELS 6 Xposition Yposition Zposition Zrotation Xrotation Yrotation
			JOINT Tail2
			{
				OFFSET 0.0000 0.0000 -67.0000
				CHANNELS 6 Xposition Yposition Zposition Zrotation Xrotation Yrotation
				JOINT Tail3
				{
					OFFSET 0.0000 0.0000 -67.0000
					CHANNELS 6 Xposition Yposition Zposition Zrotation Xrotation Yrotation
					JOINT Tail4
					{
						OFFSET 0.0000 0.0000 -67.0000
						CHANNELS 6 Xposition Yposition Zposition Zrotation Xrotation Yrotation
						JOINT Tail5
						{
							OFFSET 0.0000 0.0000 -67.0000
							CHANNELS 6 Xposition Yposition Zposition Zrotation Xrotation Yrotation
							JOINT Tail6
							{
								OFFSET 0.0000 0.0000 -67.0000
								CHANNELS 6 Xposition Yposition Zposition Zrotation Xrotation Yrotation
								End Site
								{
									OFFSET 0.0000 0.0000 -67.0000
								}
							}
						}
					}
				}
			}
		}
	}
}
MOTION
Frames: 6
Frame Time: 0.008342
-1256.5100 592.9340 240.9240 4.5851 12.8354 -128.9613 0.0000 -16.7008 118.8322 6.4870 12.0791 -16.7699 0.0000 11.8586 169.5859 4.0898 6.5578 -12.4842 50.0251 20.5442 20.6327 31.2037 -17.8461 -0.2673 0.0000 -111.4369 141.3570 -12.5551 17.5545 -0.4801 -0.0000 -172.4081 -79.8464 0.6216 -29.0931 -15.8656 0.0000 -209.8784 7.1457 -3.3553 37.7433 -0.1483 -0.0000 -64.9257 26.1658 -29.3078 61.9816 31.3081 -74.7512 6.6356 55.0063 -1.5364 -3.0004 -13.0395 -0.0000 -111.4369 141.3570 13.3791 2.4806 9.1075 0.0000 -172.4081 -79.8464 -0.2775 -7.4000 8.0735 -0.0000 -209.8784 7.1457 -4.2249 -9.2431 -0.1448 0.0000 -64.9257 26.1658 11.0153 6.0649 -5.2283 0.0000 4.1879 119.9269 6.4222 -7.0855 -32.9440 0.0000 -14.3102 88.8550 18.1404 24.2677 0.8852 0.0000 72.0997 53.8668 -4.5787 -1.2077 -3.6297 0.0000 88.9597 -13.6445 -1.4818 17.5538 -29.0623 0.0000 19.3735 72.4546 29.7348 -23.5285 21.5722 61.3462 62.7679 -8.9524 -10.7679 3.3488 1.5050 -42.1894 78.9752 -7.8344 7.6435 16.9572 9.0627 75.0000 -65.3041 -110.1607 14.1516 -5.3132 24.6123 0.0000 -209.4885 14.6489 -0.0000 -2.1442 -0.0000 0.0000 -168.5298 -141.4133 0.0000 -9.5222 -0.0000 0.0000 -96.5926 25.8819 -7.9166 12.4179 4.3918 -75.0000 -65.3041 -110.1607 -1.9607 -6.7933 -12.8572 -0.0000 -209.4885 14.6489 -0.0000 -17.5661 -0.0000 0.0000 -168.5298 -141.4133 0.0000 20.7663 -0.0000 -0.0000 -96.5926 25.8819 -7.6311 9.4511 3.8680 0.0000 -22.9100 -124.3991 3.2208 -28.4537 5.3562 0.0000 -0.0000 -67.0000 -3.6274 -28.1218 -7.6601 0.0000 -0.0000 -67.0000 0.1781 -2.8941 3.5228 -0.0000 0.0000 -67.0000 0.1062 -5.4943 1.1089 0.0000 0.0000 -67.0000 -3.5897 16.6310 12.3631 0.0000 0.0000 -67.0000 -14.4253 19.3033 37.8878 0.0000 0.0000 -67.0000 -4.8321 19.4694 14.2321 
-1256.7900 593.4340 239.8030 4.5022 12.9170 -129.4873 0.0000 -16.7008 118.8322 6.5960 12.2520 -17.0516 0.0000 11.8586 169.5859 4.0323 6.3524 -12.2244 50.3603 19.9402 19.6448 32.1990 -18.4304 0.0830 -0.0000 -111.4369 141.3570 -16.7739 17.8405 -2.4075 0.0000 -172.4081 -79.8464 0.4646 -32.6465 -11.3183 0.0000 -209.8784 7.1457 -3.1409 39.5388 -0.1426 -0.0000 -64.9257 26.1658 -27.5236 62.5142 29.3794 -75.4295 6.0231 55.2412 -1.1492 -2.8920 -13.2346 0.0000 -111.4369 141.3570 13.2947 2.4881 9.5688 0.0000 -172.4081 -79.8464 -0.2898 -6.8874 8.4452 0.0000 -209.8784 7.1457 -3.8629 -9.1075 -0.1324 0.0000 -64.9257 26.1658 10.7192 5.6784 -5.0144 -0.0000 4.1879 119.9269 6.4268 -7.5001 -32.9163 0.0000 -14.3102 88.8550 17.5889 24.3625 1.7371 -0.0000 72.0997 53.8668 -5.2417 -1.2724 -3.3228 0.0000 88.9597 -13.6445 -1.6471 16.5077 -28.2021 0.0000 19.3735 72.4546 30.4810 -24.0518 23.2630 61.1270 63.1110 -9.0496 -10.2198 3.8928 1.1889 -42.2717 79.0077 -8.0990 6.7866 18.5160 9.7662 75.0000 -65.3041 -110.1607 14.2037 -4.9404 25.0561 -0.0000 -209.4885 14.6489 -0.0000 -2.0209 0.0000 0.0000 -168.5298 -141.4133 0.0000 -9.4450 0.0000 0.0000 -96.5926 25.8819 -7.9688 12.1991 4.3935 -75.0000 -65.3041 -110.1607 -1.6534 -6.8162 -13.0593 0.0000 -209.4885 14.6489 0.0000 -16.7483 0.0000 0.0000 -168.5298 -141.4133 0.0000 19.5459 -0.0000 0.0000 -96.5926 25.8819 -7.6127 10.3712 3.9722 0.0000 -22.9100 -124.3991 3.4623 -28.7558 5.7154 0.0000 0.0000 -67.0000 -3.6521 -27.7701 -7.8005 -0.0000 0.0000 -67.0000 0.1689 -2.9738 3.2517 0.0000 -0.0000 -67.0000 0.0517 -5.6861 0.5214 0.0000 -0.0000 -67.0000 -3.5745 16.5336 12.3806 0.0000 0.0000 -67.0000 -14.2701 19.1057 37.8494 -0.0000 -0.0000 -67.0000 -4.7589 19.2382 14.1794 
-1256.8500 593.9350 238.5030 4.3951 13.0159 -129.9993 0.0000 -16.7008 118.8322 6.7330 12.4399 -17.2718 0.0000 11.8586 169.5859 3.9288 6.1609 -11.9799 50.4428 19.8838 19.0002 32.3613 -18.4281 0.5942 0.0000 -111.4369 141.3570 -20.1033 17.0820 -4.1547 0.0000 -172.4081 -79.8464 0.3590 -35.3383 -8.4261 0.0000 -209.8784 7.1457 -3.2162 39.1503 -0.1451 0.0000 -64.9257 26.1658 -26.7358 62.0201 28.5019 -76.0385 5.5706 55.5250 -0.8222 -2.7456 -13.4637 0.0000 -111.4369 141.3570 13.3002 2.4208 10.0710 0.0000 -172.4081 -79.8464 -0.3015 -6.2948 8.8026 0.0000 -209.8784 7.1457 -3.5195 -8.9488 -0.1206 -0.0000 -64.9257 26.1658 10.4787 5.3000 -4.8321 -0.0000 4.1879 119.9269 6.4091 -7.8392 -32.8096 -0.0000 -14.3102 88.8550 16.9093 23.9633 2.7716 0.0000 72.0997 53.8668 -5.7838 -1.3553 -3.1047 0.0000 88.9597 -13.6445 -1.5337 15.7449 -27.4186 0.0000 19.3735 72.4546 30.9620 -23.9504 24.3179 60.7030 63.4384 -9.7075 -10.0388 4.4459 0.9787 -42.4016 79.0311 -8.0751 5.8861 19.3921 10.2906 75.0000 -65.3041 -110.1607 14.2938 -4.5532 25.5142 0.0000 -209.4885 14.6489 -0.0000 -1.8655 -0.0000 0.0000 -168.5298 -141.4133 0.0000 -9.4062 -0.0000 -0.0000 -96.5926 25.8819 -8.0106 12.0236 4.3945 -75.0000 -65.3041 -110.1607 -1.3150 -6.8208 -13.2269 0.0000 -209.4885 14.6489 -0.0000 -15.8629 -0.0000 0.0000 -168.5298 -141.4133 0.0000 18.3312 -0.0000 -0.0000 -96.5926 25.8819 -7.4096 11.1818 3.9616 0.0000 -22.9100 -124.3991 3.6598 -28.9968 6.0062 0.0000 0.0000 -67.0000 -3.6464 -27.7049 -7.8052 0.0000 0.0000 -67.0000 0.1603 -2.9451 3.1163 0.0000 -0.0000 -67.0000 0.0042 -5.6065 0.0432 0.0000 0.0000 -67.0000 -3.5000 16.2902 12.3005 -0.0000 0.0000 -67.0000 -14.1130 18.9346 37.7696 0.0000 0.0000 -67.0000 -4.6871 19.2997 13.9320 
-1256.7700 594.4270 237.0500 4.2669 13.0984 -130.5110 0.0000 -16.7008 118.8322 6.8276 12.6214 -17.4050 0.0000 11.8586 169.5859 3.7775 6.0125 -11.7929 50.3462 20.4061 18.7550 31.6262 -17.8448 1.1937 0.0000 -111.4369 141.3570 -22.4508 15.4526 -5.8088 0.0000 -172.4081 -79.8464 0.3030 -37.1529 -6.9289 0.0000 -209.8784 7.1457 -3.7126 36.8196 -0.1619 -0.0000 -64.9257 26.1658 -25.8015 59.1586 27.3349 -76.5365 5.1903 55.9423 -0.5108 -2.5629 -13.7194 0.0000 -111.4369 141.3570 13.3912 2.3079 10.5950 0.0000 -172.4081 -79.8464 -0.3138 -5.6710 9.1808 -0.0000 -209.8784 7.1457 -3.1712 -8.7432 -0.1086 -0.0000 -64.9257 26.1658 10.2407 4.9340 -4.6562 0.0000 4.1879 119.9269 6.3932 -8.1510 -32.5692 0.0000 -14.3102 88.8550 16.1486 23.2948 3.7639 0.0000 72.0997 53.8668 -6.1161 -1.5238 -2.9052 0.0000 88.9597 -13.6445 -1.4374 15.4128 -27.0253 0.0000 19.3735 72.4546 31.4537 -23.6072 25.7019 60.6381 63.7636 -9.4084 -9.4981 4.4416 0.8124 -41.8618 78.6827 -8.0050 6.2170 18.8953 10.0399 75.0000 -65.3041 -110.1607 14.3722 -4.1656 25.9566 -0.0000 -209.4885 14.6489 -0.0000 -1.7005 -0.0000 0.0000 -168.5298 -141.4133 0.0000 -9.3335 0.0000 0.0000 -96.5926 25.8819 -8.0711 11.8073 4.4004 -75.0000 -65.3041 -110.1607 -1.0081 -6.7888 -13.2916 0.0000 -209.4885 14.6489 -0.0000 -15.0511 0.0000 0.0000 -168.5298 -141.4133 0.0000 17.0695 0.0000 0.0000 -96.5926 25.8819 -7.2725 12.0371 3.9867 -0.0000 -22.9100 -124.3991 3.8367 -29.1834 6.2679 0.0000 -0.0000 -67.0000 -3.6592 -27.7615 -7.8178 0.0000 0.0000 -67.0000 0.1614 -2.9613 3.1214 0.0000 0.0000 -67.0000 -0.0022 -5.4627 -0.0235 0.0000 -0.0000 -67.0000 -3.3910 16.0226 12.1161 0.0000 -0.0000 -67.0000 -13.9596 18.9023 37.4999 -0.0000 0.0000 -67.0000 -4.6038 19.5591 13.5244 
-1256.6300 594.9250 235.4820 4.1658 13.1806 -131.0382 -0.0000 -16.7008 118.8322 6.8965 12.7847 -17.4455 -0.0000 11.8586 169.5859 3.5778 5.8741 -11.6552 50.2131 21.2748 18.7556 30.2277 -16.8583 1.8822 0.0000 -111.4369 141.3570 -24.2083 13.1000 -7.3143 -0.0000 -172.4081 -79.8464 0.3522 -37.5280 -8.0172 0.0000 -209.8784 7.1457 -4.2553 32.7888 -0.1760 0.0000 -64.9257 26.1658 -23.7431 55.5197 24.8315 -76.8947 4.8370 56.4145 -0.1923 -2.3265 -14.0008 0.0000 -111.4369 141.3570 13.5570 2.1644 11.1818 -0.0000 -172.4081 -79.8464 -0.3253 -5.0326 9.5341 0.0000 -209.8784 7.1457 -2.8066 -8.4729 -0.0961 -0.0000 -64.9257 26.1658 9.9725 4.5872 -4.4728 -0.0000 4.1879 119.9269 6.4169 -8.4244 -32.2502 0.0000 -14.3102 88.8550 15.3794 22.5471 4.6795 0.0000 72.0997 53.8668 -6.3667 -1.7395 -2.7064 -0.0000 88.9597 -13.6445 -1.3143 15.0862 -26.6320 -0.0000 19.3735 72.4546 31.7904 -23.2359 26.7176 60.4348 64.2302 -8.9248 -9.0396 4.5117 0.6503 -41.3728 78.5453 -7.9056 6.4673 18.5190 9.8529 75.0000 -65.3041 -110.1607 14.4768 -3.8010 26.3892 0.0000 -209.4885 14.6489 -0.0000 -1.5359 -0.0000 -0.0000 -168.5298 -141.4133 0.0000 -9.2115 0.0000 0.0000 -96.5926 25.8819 -8.1277 11.5383 4.3968 -75.0000 -65.3041 -110.1607 -0.7570 -6.7873 -13.3187 -0.0000 -209.4885 14.6489 -0.0000 -14.3234 0.0000 0.0000 -168.5298 -141.4133 0.0000 15.6781 -0.0000 -0.0000 -96.5926 25.8819 -6.7065 13.5386 3.8319 0.0000 -22.9100 -124.3991 4.0049 -29.4264 6.5051 0.0000 0.0000 -67.0000 -3.6707 -27.7288 -7.8503 0.0000 -0.0000 -67.0000 0.1729 -3.0477 3.2489 -0.0000 -0.0000 -67.0000 0.0214 -5.4520 0.2251 -0.0000 0.0000 -67.0000 -3.2822 15.7674 11.9171 0.0000 -0.0000 -67.0000 -13.7909 18.8966 37.1584 0.0000 -0.0000 -67.0000 -4.4958 19.6614 13.1534 
-1256.4900 595.4130 233.7700 4.1180 13.2624 -131.5833 -0.0000 -16.7008 118.8322 6.9256 12.9292 -17.3785 0.0000 11.8586 169.5859 3.3396 5.7335 -11.5790 49.8391 22.4885 19.0444 27.9968 -15.3616 2.7549 0.0000 -111.4369 141.3570 -24.9870 9.7835 -8.9631 0.0000 -172.4081 -79.8464 0.4341 -36.4388 -10.0545 0.0000 -209.8784 7.1457 -4.5620 28.2457 -0.1794 0.0000 -64.9257 26.1658 -22.1075 51.0070 22.6252 -77.1152 4.4716 56.9103 0.1252 -2.0321 -14.2923 0.0000 -111.4369 141.3570 13.8165 2.0142 11.8111 0.0000 -172.4081 -79.8464 -0.3364 -4.4020 9.8751 0.0000 -209.8784 7.1457 -2.3859 -8.1360 -0.0816 0.0000 -64.9257 26.1658 9.6795 4.2655 -4.2856 0.0000 4.1879 119.9269 6.5922 -8.6548 -31.8722 0.0000 -14.3102 88.8550 14.5968 21.7157 5.5166 0.0000 72.0997 53.8668 -6.5474 -1.9493 -2.4966 0.0000 88.9597 -13.6445 -1.1619 14.5114 -25.9820 0.0000 19.3735 72.4546 31.7961 -22.8145 26.8811 60.1195 64.7343 -8.5507 -8.9858 5.0594 0.4769 -41.2402 78.7720 -7.6855 6.0155 18.5669 9.9920 75.0000 -65.3041 -110.1607 14.6271 -3.4671 26.8285 0.0000 -209.4885 14.6489 -0.0000 -1.3730 -0.0000 0.0000 -168.5298 -141.4133 0.0000 -9.0566 -0.0000 -0.0000 -96.5926 25.8819 -8.1838 11.2363 4.3880 -75.0000 -65.3041 -110.1607 -0.5137 -6.8668 -13.1317 0.0000 -209.4885 14.6489 -0.0000 -13.6615 0.0000 0.0000 -168.5298 -141.4133 0.0000 14.3355 -0.0000 0.0000 -96.5926 25.8819 -6.1548 15.3460 3.6859 0.0000 -22.9100 -124.3991 4.1540 -29.7166 6.7018 -0.0000 0.0000 -67.0000 -3.6652 -27.6579 -7.8570 0.0000 -0.0000 -67.0000 0.1922 -3.1797 3.4601 -0.0000 0.0000 -67.0000 0.0586 -5.5546 0.6057 0.0000 0.0000 -67.0000 -3.1968 15.5502 11.7687 0.0000 -0.0000 -67.0000 -13.6360 18.8085 36.9592 -0.0000 0.0000 -67.0000 -4.3946 19.5796 12.9160 
